<svg width="196" height="196" viewBox="0 0 196 196" fill="none" xmlns="http://www.w3.org/2000/svg">
<g clip-path="url(#clip0_7_16)">
<rect y="-0.765625" width="196" height="196" rx="98" fill="#0A192F"/>
<path d="M65.043 106.234C64.2774 106.234 63.6266 106.005 63.0906 105.545C62.6313 105.009 62.4016 104.359 62.4016 103.593V28.6C62.4016 27.7578 62.6313 27.107 63.0906 26.6477C63.6266 26.1117 64.2774 25.8437 65.043 25.8437H70.7852C71.7039 25.8437 72.393 26.0734 72.8524 26.5328C73.3117 26.9922 73.5797 27.375 73.6563 27.6812L98.0031 74.0781L122.465 27.6812C122.618 27.375 122.886 26.9922 123.269 26.5328C123.728 26.0734 124.417 25.8437 125.336 25.8437H130.963C131.805 25.8437 132.456 26.1117 132.916 26.6477C133.452 27.107 133.72 27.7578 133.72 28.6V103.593C133.72 104.359 133.452 105.009 132.916 105.545C132.456 106.005 131.805 106.234 130.963 106.234H125.336C124.57 106.234 123.92 106.005 123.384 105.545C122.924 105.009 122.695 104.359 122.695 103.593V47.0898L103.516 84.5289C103.209 85.2945 102.75 85.907 102.138 86.3664C101.525 86.7492 100.759 86.9406 99.8406 86.9406H96.2805C95.2852 86.9406 94.4813 86.7492 93.8688 86.3664C93.3328 85.907 92.8735 85.2945 92.4906 84.5289L73.3117 47.0898V103.593C73.3117 104.359 73.0438 105.009 72.5078 105.545C72.0485 106.005 71.436 106.234 70.6703 106.234H65.043Z" fill="#17BEBB"/>
<path d="M85.4398 182.625C85.057 182.625 84.7316 182.51 84.4636 182.28C84.2339 182.012 84.1191 181.687 84.1191 181.304V179.467C84.1191 179.122 84.2148 178.739 84.4062 178.318C84.5976 177.897 84.9804 177.438 85.5546 176.94L97.7281 164.767C99.6804 163.121 101.212 161.723 102.322 160.575C103.47 159.388 104.274 158.259 104.734 157.187C105.231 156.115 105.48 155.005 105.48 153.857C105.48 151.675 104.868 149.952 103.643 148.689C102.418 147.387 100.599 146.736 98.1874 146.736C96.6562 146.736 95.3355 147.062 94.2253 147.712C93.1152 148.325 92.2347 149.186 91.5839 150.296C90.9714 151.368 90.5695 152.593 90.3781 153.971C90.3015 154.469 90.0909 154.814 89.7464 155.005C89.4402 155.196 89.1531 155.292 88.8851 155.292H85.8991C85.5546 155.292 85.2675 155.196 85.0378 155.005C84.8081 154.775 84.6933 154.507 84.6933 154.201C84.7316 152.746 85.0378 151.292 85.612 149.837C86.1863 148.344 87.0284 147.004 88.1386 145.818C89.287 144.631 90.6843 143.674 92.3304 142.946C94.0148 142.181 95.9671 141.798 98.1874 141.798C101.212 141.798 103.681 142.353 105.595 143.463C107.547 144.535 108.983 145.971 109.901 147.77C110.82 149.569 111.28 151.541 111.28 153.684C111.28 155.369 110.993 156.919 110.418 158.336C109.844 159.714 109.002 161.073 107.892 162.412C106.82 163.714 105.48 165.054 103.872 166.432L92.8472 177.629H110.763C111.184 177.629 111.509 177.744 111.739 177.974C112.007 178.204 112.141 178.529 112.141 178.95V181.304C112.141 181.687 112.007 182.012 111.739 182.28C111.509 182.51 111.184 182.625 110.763 182.625H85.4398Z" fill="#17BEBB"/>
<path d="M92.0936 131.566L88.7249 129.039C88.3676 128.784 88.1634 128.427 88.1124 127.967C88.0613 127.457 88.1379 127.048 88.3421 126.742C88.3421 126.691 88.4952 126.512 88.8014 126.206L94.3139 121.153L86.8108 120.311C86.6066 120.26 86.4535 120.234 86.3514 120.234C86.3004 120.183 86.2494 120.158 86.1983 120.158C85.841 120.056 85.5348 119.801 85.2796 119.392C85.0754 118.933 85.0244 118.473 85.1264 118.014L86.5046 114.033C86.6066 113.624 86.8874 113.318 87.3467 113.114C87.8061 112.91 88.2145 112.859 88.5717 112.961C88.6228 112.961 88.827 113.037 89.1842 113.191L95.7686 116.942L94.2374 109.516C94.1863 109.311 94.1608 109.184 94.1608 109.133C94.1608 109.031 94.1608 108.954 94.1608 108.903C94.1608 108.495 94.3139 108.112 94.6202 107.755C94.9775 107.397 95.3858 107.219 95.8452 107.219H100.056C100.515 107.219 100.898 107.397 101.205 107.755C101.562 108.112 101.74 108.495 101.74 108.903C101.74 108.954 101.74 109.031 101.74 109.133C101.74 109.184 101.715 109.311 101.664 109.516L100.133 116.942L106.794 113.191C107.151 113.037 107.355 112.961 107.406 112.961C107.814 112.859 108.223 112.91 108.631 113.114C109.09 113.318 109.371 113.624 109.473 114.033L110.851 118.014C110.954 118.473 110.877 118.933 110.622 119.392C110.418 119.801 110.111 120.056 109.703 120.158C109.652 120.158 109.575 120.183 109.473 120.234C109.422 120.234 109.32 120.26 109.167 120.311L101.587 121.153L107.176 126.206C107.483 126.512 107.636 126.691 107.636 126.742C107.891 127.048 107.993 127.457 107.942 127.967C107.891 128.427 107.661 128.784 107.253 129.039L103.884 131.566C103.476 131.77 103.042 131.846 102.583 131.795C102.123 131.744 101.766 131.54 101.511 131.183C101.511 131.132 101.485 131.081 101.434 131.03C101.383 130.979 101.307 130.851 101.205 130.647L97.9889 123.68L94.7733 130.647C94.7223 130.851 94.6457 130.979 94.5436 131.03C94.4926 131.081 94.4671 131.132 94.4671 131.183C94.2629 131.54 93.9056 131.744 93.3952 131.795C92.9358 131.846 92.502 131.77 92.0936 131.566Z" fill="#17BEBB"/>
</g>
</svg>
