<svg width="196" height="196" viewBox="0 0 196 196" fill="none" xmlns="http://www.w3.org/2000/svg">
<g clip-path="url(#clip0_3_15)">
<g clip-path="url(#clip1_3_15)">
<rect y="-0.765625" width="196" height="196" rx="98" fill="#0A192F"/>
<path d="M70.5358 97.4219C69.8978 97.4219 69.3555 97.2305 68.9089 96.8477C68.5261 96.401 68.3346 95.8587 68.3346 95.2207V32.7266C68.3346 32.0247 68.5261 31.4824 68.9089 31.0996C69.3555 30.653 69.8978 30.4297 70.5358 30.4297H75.321C76.0866 30.4297 76.6608 30.6211 77.0436 31.0039C77.4264 31.3867 77.6498 31.7057 77.7136 31.9609L98.0026 70.625L118.387 31.9609C118.515 31.7057 118.738 31.3867 119.057 31.0039C119.44 30.6211 120.014 30.4297 120.78 30.4297H125.469C126.171 30.4297 126.714 30.653 127.096 31.0996C127.543 31.4824 127.766 32.0247 127.766 32.7266V95.2207C127.766 95.8587 127.543 96.401 127.096 96.8477C126.714 97.2305 126.171 97.4219 125.469 97.4219H120.78C120.142 97.4219 119.6 97.2305 119.153 96.8477C118.77 96.401 118.579 95.8587 118.579 95.2207V48.1348L102.596 79.334C102.341 79.972 101.958 80.4824 101.448 80.8652C100.938 81.1842 100.299 81.3437 99.5339 81.3437H96.5671C95.7376 81.3437 95.0677 81.1842 94.5573 80.8652C94.1107 80.4824 93.7279 79.972 93.4089 79.334L77.4264 48.1348V95.2207C77.4264 95.8587 77.2031 96.401 76.7565 96.8477C76.3737 97.2305 75.8633 97.4219 75.2253 97.4219H70.5358Z" fill="#17BEBB"/>
<path d="M85.057 176.117C84.6741 176.117 84.3488 176.002 84.0808 175.773C83.8511 175.505 83.7363 175.179 83.7363 174.796V172.959C83.7363 172.614 83.832 172.232 84.0234 171.811C84.2148 171.389 84.5976 170.93 85.1718 170.432L97.3452 158.259C99.2976 156.613 100.829 155.216 101.939 154.067C103.087 152.88 103.891 151.751 104.351 150.679C104.848 149.607 105.097 148.497 105.097 147.349C105.097 145.167 104.485 143.444 103.26 142.181C102.035 140.879 100.216 140.229 97.8046 140.229C96.2734 140.229 94.9527 140.554 93.8425 141.205C92.7324 141.817 91.8519 142.679 91.2011 143.789C90.5886 144.861 90.1866 146.086 89.9952 147.464C89.9187 147.961 89.7081 148.306 89.3636 148.497C89.0574 148.689 88.7702 148.784 88.5023 148.784H85.5163C85.1718 148.784 84.8847 148.689 84.655 148.497C84.4253 148.268 84.3105 148 84.3105 147.693C84.3488 146.239 84.655 144.784 85.2292 143.329C85.8034 141.836 86.6456 140.496 87.7558 139.31C88.9042 138.123 90.3015 137.166 91.9476 136.439C93.632 135.673 95.5843 135.29 97.8046 135.29C100.829 135.29 103.298 135.845 105.212 136.955C107.164 138.027 108.6 139.463 109.519 141.262C110.437 143.061 110.897 145.033 110.897 147.177C110.897 148.861 110.61 150.411 110.035 151.828C109.461 153.206 108.619 154.565 107.509 155.905C106.437 157.206 105.097 158.546 103.489 159.924L92.4644 171.121H110.38C110.801 171.121 111.126 171.236 111.356 171.466C111.624 171.696 111.758 172.021 111.758 172.442V174.796C111.758 175.179 111.624 175.505 111.356 175.773C111.126 176.002 110.801 176.117 110.38 176.117H85.057Z" fill="#17BEBB"/>
<path d="M92.0936 125.058L88.7249 122.531C88.3676 122.276 88.1634 121.919 88.1124 121.459C88.0613 120.949 88.1379 120.541 88.3421 120.234C88.3421 120.183 88.4952 120.005 88.8014 119.698L94.3139 114.645L86.8108 113.803C86.6066 113.752 86.4535 113.727 86.3514 113.727C86.3004 113.676 86.2494 113.65 86.1983 113.65C85.841 113.548 85.5348 113.293 85.2796 112.884C85.0754 112.425 85.0244 111.966 85.1264 111.506L86.5046 107.525C86.6066 107.117 86.8874 106.81 87.3467 106.606C87.8061 106.402 88.2145 106.351 88.5717 106.453C88.6228 106.453 88.827 106.53 89.1842 106.683L95.7686 110.434L94.2374 103.008C94.1863 102.804 94.1608 102.676 94.1608 102.625C94.1608 102.523 94.1608 102.446 94.1608 102.395C94.1608 101.987 94.3139 101.604 94.6202 101.247C94.9775 100.89 95.3858 100.711 95.8452 100.711H100.056C100.515 100.711 100.898 100.89 101.205 101.247C101.562 101.604 101.74 101.987 101.74 102.395C101.74 102.446 101.74 102.523 101.74 102.625C101.74 102.676 101.715 102.804 101.664 103.008L100.133 110.434L106.794 106.683C107.151 106.53 107.355 106.453 107.406 106.453C107.814 106.351 108.223 106.402 108.631 106.606C109.09 106.81 109.371 107.117 109.473 107.525L110.851 111.506C110.954 111.966 110.877 112.425 110.622 112.884C110.418 113.293 110.111 113.548 109.703 113.65C109.652 113.65 109.575 113.676 109.473 113.727C109.422 113.727 109.32 113.752 109.167 113.803L101.587 114.645L107.176 119.698C107.483 120.005 107.636 120.183 107.636 120.234C107.891 120.541 107.993 120.949 107.942 121.459C107.891 121.919 107.661 122.276 107.253 122.531L103.884 125.058C103.476 125.262 103.042 125.339 102.583 125.287C102.123 125.236 101.766 125.032 101.511 124.675C101.511 124.624 101.485 124.573 101.434 124.522C101.383 124.471 101.307 124.343 101.205 124.139L97.9889 117.172L94.7733 124.139C94.7223 124.343 94.6457 124.471 94.5436 124.522C94.4926 124.573 94.4671 124.624 94.4671 124.675C94.2629 125.032 93.9056 125.236 93.3952 125.287C92.9358 125.339 92.502 125.262 92.0936 125.058Z" fill="#17BEBB"/>
</g>
</g>
<defs>
<clipPath id="clip0_3_15">
<rect width="196" height="196" fill="white"/>
</clipPath>
<clipPath id="clip1_3_15">
<rect width="196" height="196" fill="white"/>
</clipPath>
</defs>
</svg>
